<?xml version="1.0" encoding="iso-8859-1"?>
<!-- Generator: Adobe Illustrator 17.1.0, SVG Export Plug-In . SVG Version: 6.00 Build 0)  -->
<!DOCTYPE svg PUBLIC "-//W3C//DTD SVG 1.1//EN" "http://www.w3.org/Graphics/SVG/1.1/DTD/svg11.dtd">
<svg version="1.1" id="Capa_1" xmlns="http://www.w3.org/2000/svg" xmlns:xlink="http://www.w3.org/1999/xlink" x="0px" y="0px"
	 viewBox="0 0 382.247 382.247" style="enable-background:new 0 0 382.247 382.247;" xml:space="preserve">
<path d="M375.995,190.627c-2.821-7.423-9.821-12.393-17.491-12.393c-3.904,0-7.794,1.348-11.587,4.01h-19.435
	c-2.768-26.059-12.917-50.425-29.567-70.979l19.381-19.267c9.564-0.863,17.083-8.91,17.083-18.677
	c0-10.351-8.429-18.771-18.789-18.771c-9.747,0-17.784,7.463-18.701,16.977l-19.946,19.542
	c-20.89-16.918-45.892-27.119-72.819-29.712V31.234c4.247-3.875,4.796-8.845,4.796-12.446C208.919,8.429,200.604,0,190.382,0
	c-10.571,0-19.171,8.429-19.171,18.788c0,5.048,1.284,9.018,3.913,12.059v30.727c-25.764,2.934-49.893,13.2-70.292,29.908
	L86.343,72.792c-0.299-10.1-8.58-18.224-18.717-18.224c-10.342,0-18.756,8.429-18.756,18.788c0,9.337,6.816,17.122,15.854,18.541
	l20.18,19.94c-16.39,20.456-26.381,44.624-29.108,70.406H36.356c-2.904-2.021-6.952-4.01-11.636-4.01
	c-7.832,0-15.166,5.008-17.937,12.211c-0.665,1.361-1.66,3.412-1.66,5.802v2.12c0,2.331,0.945,4.227,1.57,5.481l0.095,0.192
	c2.789,7.242,10.037,12.276,17.729,12.276c4.909,0,9.146-2.217,11.832-4.073h19.467c2.847,25.551,13.429,50.981,29.556,71.038
	l-19.409,19.32c-9.554,0.873-17.062,8.919-17.062,18.683c0,10.353,8.428,18.774,18.788,18.774c9.768,0,17.818-7.495,18.707-17.038
	l19.008-19.418c20.01,16.146,44.456,26.464,69.718,29.425v19.164c-3.788,4.487-3.787,10.047-3.787,12.035
	c0,7.604,4.852,14.321,12.38,17.169c1.677,0.744,3.387,0.851,4.992,0.851l0.863-0.003l2.961,0.003c1.493,0,3.099-0.106,4.767-0.854
	c7.174-2.725,11.62-9.355,11.62-17.359c0-3.53-0.549-8.407-4.796-12.26v-18.517c26.644-2.556,51.444-12.599,72.237-29.255
	l20.444,20.238c1.439,9.013,9.269,15.805,18.66,15.805c10.395,0,18.851-8.429,18.851-18.789c0-10.119-8.028-18.396-18.04-18.774
	l-18.823-18.653c16.674-20.438,27.205-45.546,30.023-71.585h19.438c3.839,2.704,7.75,4.073,11.646,4.073
	c7.673,0,14.651-4.901,17.436-12.221c0.749-1.646,1.128-3.571,1.128-5.729v-2.12C377.124,194.128,376.754,192.286,375.995,190.627z
	 M228.182,214.686c0.36-0.829,0.69-1.656,0.996-2.441h58.505c-2.395,15.781-8.66,30.644-18.341,43.506L228.182,214.686z
	 M229.191,182.244c-0.209-0.524-0.432-1.066-0.668-1.614l41.26-41.384c9.446,12.751,15.561,27.436,17.905,42.998H229.191z
	 M247.952,275.855c-12.811,9.282-28.048,15.417-43.828,17.643v-57.879c1.008-0.317,1.917-0.666,2.771-1.037L247.952,275.855z
	 M204.124,159.058v-57.933c16.012,2.29,31.802,8.677,44.629,18.049l-41.387,41.171C206.375,159.884,205.311,159.449,204.124,159.058
	z M132.674,119.592c12.613-9.497,27.108-15.706,42.449-18.186v58.581c-0.429,0.197-0.836,0.4-1.229,0.606L132.674,119.592z
	 M175.124,234.517v58.701c-15.082-2.406-29.051-8.367-41.651-17.773l40.997-41.217C174.683,234.324,174.901,234.42,175.124,234.517z
	 M154.762,213.914l-41.265,41.361c-9.446-12.753-15.561-27.448-17.907-43.031h58.488
	C154.292,212.785,154.52,213.347,154.762,213.914z M95.617,182.244c2.367-15.143,8.437-29.833,17.469-42.282l41.353,41.23
	c-0.145,0.354-0.284,0.705-0.418,1.052H95.617z"/>
<g>
</g>
<g>
</g>
<g>
</g>
<g>
</g>
<g>
</g>
<g>
</g>
<g>
</g>
<g>
</g>
<g>
</g>
<g>
</g>
<g>
</g>
<g>
</g>
<g>
</g>
<g>
</g>
<g>
</g>
</svg>
