<?xml version="1.0" encoding="iso-8859-1"?>
<!-- Generator: Adobe Illustrator 19.0.0, SVG Export Plug-In . SVG Version: 6.00 Build 0)  -->
<svg version="1.1" id="Layer_1" xmlns="http://www.w3.org/2000/svg" xmlns:xlink="http://www.w3.org/1999/xlink" x="0px" y="0px"
	 viewBox="0 0 512.002 512.002" style="enable-background:new 0 0 512.002 512.002;" xml:space="preserve">
<g>
	<g>
		<rect x="68.094" width="155.908" height="65.607"/>
	</g>
</g>
<g>
	<g>
		<rect x="288" width="155.908" height="65.607"/>
	</g>
</g>
<g>
	<g>
		<polygon points="489.504,362.644 462.388,126.441 422.48,126.441 422.48,96.024 309.432,96.024 309.432,126.441 272.576,126.441 
			272.576,177.702 239.423,177.702 239.423,126.441 202.568,126.441 202.568,96.024 89.52,96.024 89.52,126.441 49.611,126.441 
			22.496,362.644 202.568,362.644 202.568,332.245 239.423,332.245 239.423,280.984 272.576,280.984 272.576,332.245 
			309.432,332.245 309.432,362.644 		"/>
	</g>
</g>
<g>
	<g>
		<rect y="393.061" width="229.285" height="118.941"/>
	</g>
</g>
<g>
	<g>
		<rect x="282.717" y="393.061" width="229.285" height="118.941"/>
	</g>
</g>
<g>
</g>
<g>
</g>
<g>
</g>
<g>
</g>
<g>
</g>
<g>
</g>
<g>
</g>
<g>
</g>
<g>
</g>
<g>
</g>
<g>
</g>
<g>
</g>
<g>
</g>
<g>
</g>
<g>
</g>
</svg>
